<svg width="51" height="28" viewBox="0 0 51 28" fill="none" xmlns="http://www.w3.org/2000/svg">
<path d="M13.04 7.48004C13.3334 8.2267 13.2134 8.89337 12.68 9.48004L5.76003 16.32C5.52002 16.6134 5.52002 16.8534 5.76003 17.04L12.6 23.92C13.1867 24.5067 13.3334 25.1734 13.04 25.92C12.9067 26.24 12.68 26.5067 12.36 26.72C12.04 26.9334 11.6934 27.04 11.32 27.04H9.80003C9.26669 27.04 8.84003 26.8534 8.52003 26.48L0.520025 18.52C0.173358 18.1734 2.45273e-05 17.7467 2.45273e-05 17.24V16.12C2.45273e-05 15.6667 0.173358 15.24 0.520025 14.84L8.52003 6.88004C8.84003 6.50671 9.26669 6.32004 9.80003 6.32004H11.36C11.7334 6.32004 12.0667 6.4267 12.36 6.64004C12.68 6.85337 12.9067 7.13337 13.04 7.48004ZM33.5272 2.64004L21.0072 26.08C20.6605 26.72 20.1272 27.04 19.4072 27.04H18.1672C17.4739 27.04 16.9539 26.7467 16.6072 26.16C16.2872 25.5734 16.2739 24.96 16.5672 24.32L29.0872 0.960039C29.4339 0.320037 29.9672 3.67165e-05 30.6872 3.67165e-05H31.9272C32.6205 3.67165e-05 33.1405 0.29337 33.4872 0.880037C33.8339 1.44004 33.8472 2.02671 33.5272 2.64004ZM50.1141 17.24C50.1141 17.7734 49.9408 18.2 49.5941 18.52L41.6341 26.48C41.2074 26.8534 40.7674 27.04 40.3141 27.04H38.7541C38.4074 27.04 38.0741 26.9334 37.7541 26.72C37.4608 26.5067 37.2341 26.24 37.0741 25.92C36.7808 25.2 36.9141 24.5334 37.4741 23.92L44.3141 17.04C44.6074 16.8534 44.6074 16.6134 44.3141 16.32L37.4741 9.48004C36.8874 8.94671 36.7541 8.28004 37.0741 7.48004C37.2074 7.13337 37.4341 6.85337 37.7541 6.64004C38.0741 6.4267 38.4074 6.32004 38.7541 6.32004H40.3141C40.7674 6.32004 41.2074 6.50671 41.6341 6.88004L49.5941 14.84C49.9408 15.1867 50.1141 15.6134 50.1141 16.12V17.24Z" fill="#10B981"/>
</svg>
