<svg xmlns="http://www.w3.org/2000/svg" width="314" height="271" fill="none" viewBox="0 0 314 271">
  <g clip-path="url(#a)">
    <path fill="#E5E5E5" stroke="#333" stroke-width="10" d="M289.165 5.321H24.425c-10.443 0-18.91 8.465-18.91 18.91V195.34c0 10.445 8.467 18.91 18.91 18.91h118.18v16.025c-13.85 5.6-23.63 19.17-23.63 35.04h75.639c0-15.873-9.781-29.436-23.638-35.045v-16.025h118.19c10.444 0 18.911-8.465 18.911-18.91V24.215c0-10.445-8.47-18.91-18.91-18.91l-.002.016Z"/>
    <path fill="#5479DA" stroke="#3F3D56" stroke-width="5" d="M289.165 24.23H24.425V173.2h264.74V24.23Z"/>
    <path fill="#2F2E41" d="M74.293 115.591v-52.5h7.5v22.5h22.5v-22.5h7.5v52.5h-7.5v-22.5h-22.5v22.5h-7.502.002Zm45.002-7.5v-22.5h7.5v7.5h15v7.5h-15v7.5h-7.5Zm7.5-22.5v-7.5h15v7.5h-15Zm0 30v-7.5h22.5v7.5h-22.5Zm15-22.5v-7.5h7.5v7.5h-7.5Zm15 15v-45h7.5v45h-7.5Zm7.5 7.5v-7.5h7.5v7.5h-7.5Zm15-7.5v-45h7.5v45h-7.5Zm7.5 7.5v-7.5h7.5v7.5h-7.5Zm15-7.5v-22.5h7.5v22.5h-7.5Zm7.5-22.5v-7.5h15v7.5h-15Zm0 30v-7.5h15v7.5h-15Zm15-7.5v-22.5h7.5v22.5h-7.5Z"/>
    <path fill="#000" d="M24.425 5.32c-10.443 0-18.907 8.476-18.907 18.918v91.812c4.989-4.43 151.29-86.95 249.12-110.73H24.425Z" opacity=".25"/>
    <path fill="#6D9541" stroke="#3F3D56" stroke-width="2" d="M254.765 197.306a4.425 4.425 0 1 0 0-8.85 4.425 4.425 0 0 0 0 8.85Z"/>
    <path fill="#B2B2B2" stroke="#3F3D56" stroke-width="2" d="M269.525 197.306a4.425 4.425 0 1 0 0-8.85 4.425 4.425 0 0 0 0 8.85Zm15.12.001a4.427 4.427 0 1 0-.001-8.853 4.427 4.427 0 0 0 .001 8.853Z"/>
  </g>
  <defs>
    <clipPath id="a">
      <path fill="#fff" d="M0 0h314v271H0z"/>
    </clipPath>
  </defs>
</svg>
